<?xml version="1.0" encoding="utf-8"?>
<!-- Generator: Adobe Illustrator 15.1.0, SVG Export Plug-In . SVG Version: 6.00 Build 0)  -->
<!DOCTYPE svg PUBLIC "-//W3C//DTD SVG 1.1//EN" "http://www.w3.org/Graphics/SVG/1.1/DTD/svg11.dtd">
<svg version="1.1" id="Layer_1" xmlns="http://www.w3.org/2000/svg" xmlns:xlink="http://www.w3.org/1999/xlink" x="0px" y="0px"
	 width="2021.832px" height="960.308px" viewBox="0 0 2021.832 960.308" enable-background="new 0 0 2021.832 960.308"
	 xml:space="preserve">
<g id="R-Multicolor">
	<path fill="#E15060" d="M1218.189,0c237.759,0,430.509,192.748,430.509,430.51c0,237.758-192.75,430.509-430.509,430.509
		c-237.763,0-430.511-192.751-430.511-430.509C787.679,192.748,980.427,0,1218.189,0z"/>
	<g>
		<g>
			<path fill="#FAE158" d="M1437.358,305.271L999.021,461.82v203.513c0,5.092,2.473,9.861,6.639,12.798
				c4.162,2.936,9.486,3.653,14.283,1.947l417.416-149.08V305.271z"/>
		</g>
		<g>
			<path fill="#FBF6C3" d="M1437.358,305.271L999.021,461.82l219.169-281.789C1313.763,180.031,1400.773,238.057,1437.358,305.271z"
				/>
		</g>
		<g>
			<path fill="#F2B71B" d="M1194.706,540.095c4.324,0,7.829,3.501,7.829,7.828c0,4.325-3.505,7.827-7.829,7.827
				c-4.322,0-7.826-3.502-7.826-7.827C1186.88,543.596,1190.384,540.095,1194.706,540.095z"/>
		</g>
		<g>
			<path fill="#F2B71B" d="M1398.222,352.236c4.327,0,7.827,3.504,7.827,7.828c0,4.322-3.5,7.827-7.827,7.827
				s-7.829-3.505-7.829-7.827C1390.393,355.74,1393.895,352.236,1398.222,352.236z"/>
		</g>
		<g>
			<circle fill="#F2B71B" cx="1343.429" cy="430.51" r="31.31"/>
		</g>
		<g>
			<path fill="#F2B71B" d="M1100.778,446.165c4.322,0,7.826,3.501,7.826,7.828s-3.504,7.827-7.826,7.827
				c-4.323,0-7.828-3.5-7.828-7.827S1096.455,446.165,1100.778,446.165z"/>
		</g>
		<g>
			<path fill="#F2B71B" d="M1136.785,617.048c-0.196,0.144-0.402,0.335-0.551,0.527c-5.642,7.476-4.983,15.097-1.243,20.362
				l28.303-10.105C1162.487,616.275,1149.282,608.127,1136.785,617.048z"/>
		</g>
		<g>
			<circle fill="#F2B71B" cx="1288.637" cy="508.785" r="15.655"/>
		</g>
		<g>
			<circle fill="#F2B71B" cx="1077.296" cy="540.095" r="15.655"/>
		</g>
		<g>
			<path fill="#FBCC1E" d="M1241.672,226.996c12.964,0,23.482,5.256,23.482,11.742s-10.519,11.741-23.482,11.741
				c-12.965,0-23.482-5.255-23.482-11.741S1228.707,226.996,1241.672,226.996z"/>
		</g>
		<g>
			<ellipse fill="#FBCC1E" cx="1190.794" cy="322.883" rx="19.567" ry="9.784"/>
		</g>
		<g>
			<ellipse fill="#FBCC1E" cx="1308.205" cy="289.616" rx="35.224" ry="15.655"/>
		</g>
		<g>
			<ellipse fill="#FBCC1E" cx="1116.433" cy="375.718" rx="15.654" ry="7.828"/>
		</g>
	</g>
</g>
<g>
	<path fill="#E0505F" d="M0,579.184v-361.39h237.194v31.558H35.63v132.849h170.006v29.522H35.63v167.461H0z"/>
	<path fill="#FFFFFF" d="M405.166,344.535c-23.414,0.684-43.774,7.126-61.08,19.342c-17.306,12.216-29.522,29.013-36.648,50.391
		v164.916h-34.612V313.995h32.576v63.625c9.838-20.36,23.072-36.306,39.702-47.846c16.622-11.532,34.437-17.306,53.445-17.306
		c2.712,0,4.915,0.175,6.617,0.509V344.535z"/>
	<path fill="#FFFFFF" d="M552.782,584.273c-19.342,0-37.078-3.65-53.191-10.943c-16.121-7.293-30.118-17.306-41.992-30.03
		c-11.882-12.726-21.124-27.399-27.741-44.029c-6.617-16.622-9.925-34.437-9.925-53.445c0-18.658,3.309-36.219,9.925-52.682
		c6.617-16.455,15.779-30.874,27.486-43.265c11.707-12.383,25.704-22.221,41.992-29.522c16.288-7.293,33.928-10.943,52.936-10.943
		c19.342,0,37.07,3.65,53.19,10.943c16.113,7.301,29.944,17.227,41.484,29.777c11.532,12.558,20.527,26.977,26.977,43.265
		c6.442,16.288,9.671,33.594,9.671,51.918c0,2.72,0,5.432,0,8.144c0,2.72-0.175,4.581-0.509,5.599H456.072
		c1.018,14.252,4.326,27.407,9.925,39.448c5.599,12.048,12.805,22.484,21.632,31.303c8.82,8.828,18.913,15.7,30.286,20.614
		c11.365,4.924,23.494,7.381,36.394,7.381c8.478,0,16.964-1.186,25.45-3.563c8.479-2.371,16.288-5.6,23.414-9.672
		s13.568-9.074,19.342-15.016c5.766-5.933,10.18-12.471,13.234-19.596l30.031,8.144c-4.072,9.847-9.846,18.753-17.306,26.723
		c-7.468,7.978-16.121,14.937-25.959,20.869c-9.846,5.94-20.702,10.522-32.576,13.743
		C578.057,582.659,565.673,584.273,552.782,584.273z M650.51,432.592c-1.018-14.252-4.327-27.232-9.926-38.938
		c-5.599-11.707-12.725-21.8-21.378-30.286c-8.653-8.478-18.666-15.095-30.031-19.851c-11.373-4.748-23.502-7.126-36.394-7.126
		c-12.9,0-25.116,2.378-36.648,7.126c-11.54,4.756-21.632,11.373-30.285,19.851c-8.653,8.486-15.612,18.666-20.869,30.54
		c-5.265,11.882-8.398,24.774-9.417,38.684H650.51z"/>
	<path fill="#FFFFFF" d="M851.56,584.273c-19.342,0-37.078-3.65-53.191-10.943c-16.121-7.293-30.118-17.306-41.992-30.03
		c-11.882-12.726-21.124-27.399-27.741-44.029c-6.617-16.622-9.925-34.437-9.925-53.445c0-18.658,3.309-36.219,9.925-52.682
		c6.617-16.455,15.779-30.874,27.486-43.265c11.707-12.383,25.704-22.221,41.992-29.522c16.288-7.293,33.928-10.943,52.936-10.943
		c19.342,0,37.069,3.65,53.19,10.943c16.113,7.301,29.943,17.227,41.483,29.777c11.532,12.558,20.527,26.977,26.978,43.265
		c6.441,16.288,9.671,33.594,9.671,51.918c0,2.72,0,5.432,0,8.144c0,2.72-0.176,4.581-0.51,5.599H754.85
		c1.018,14.252,4.326,27.407,9.925,39.448c5.599,12.048,12.805,22.484,21.632,31.303c8.82,8.828,18.913,15.7,30.286,20.614
		c11.365,4.924,23.494,7.381,36.394,7.381c8.478,0,16.964-1.186,25.45-3.563c8.478-2.371,16.288-5.6,23.414-9.672
		s13.567-9.074,19.342-15.016c5.766-5.933,10.18-12.471,13.234-19.596l30.03,8.144c-4.071,9.847-9.846,18.753-17.306,26.723
		c-7.468,7.978-16.121,14.937-25.959,20.869c-9.846,5.94-20.702,10.522-32.576,13.743
		C876.834,582.659,864.451,584.273,851.56,584.273z M949.288,432.592c-1.019-14.252-4.327-27.232-9.926-38.938
		c-5.599-11.707-12.725-21.8-21.378-30.286c-8.653-8.478-18.666-15.095-30.031-19.851c-11.373-4.748-23.501-7.126-36.393-7.126
		c-12.9,0-25.116,2.378-36.648,7.126c-11.54,4.756-21.633,11.373-30.286,19.851c-8.653,8.486-15.612,18.666-20.869,30.54
		c-5.265,11.882-8.398,24.774-9.417,38.684H949.288z"/>
</g>
<g>
	<path fill="#FCF6C2" d="M268.346,771.978c0-21.712,3.817-43.345,11.453-64.897c7.635-21.545,18.746-40.8,33.339-57.771
		c14.586-16.964,32.576-30.794,53.954-41.483c21.378-10.688,45.635-16.033,72.787-16.033c32.234,0,59.807,7.301,82.712,21.887
		c22.905,14.594,39.781,33.594,50.646,57.008l-27.995,17.307c-5.774-11.874-12.813-21.888-21.124-30.031
		c-8.319-8.145-17.227-14.761-26.722-19.852c-9.504-5.09-19.342-8.732-29.522-10.943c-10.18-2.203-20.193-3.309-30.031-3.309
		c-21.72,0-40.895,4.414-57.517,13.234c-16.63,8.828-30.627,20.36-41.992,34.612c-11.373,14.252-19.938,30.285-25.705,48.101
		c-5.774,17.814-8.653,35.884-8.653,54.208c0,20.026,3.476,39.193,10.435,57.518c6.951,18.323,16.455,34.532,28.504,48.609
		c12.041,14.085,26.293,25.282,42.756,33.594c16.455,8.319,34.357,12.471,53.699,12.471c10.18,0,20.615-1.272,31.304-3.817
		c10.689-2.546,21.036-6.617,31.049-12.217c10.005-5.599,19.254-12.55,27.741-20.868c8.478-8.312,15.604-18.404,21.378-30.286
		l29.522,15.271c-5.774,13.575-13.918,25.537-24.432,35.884c-10.522,10.355-22.229,19.088-35.121,26.214
		c-12.9,7.126-26.555,12.558-40.974,16.288c-14.427,3.729-28.592,5.599-42.501,5.599c-24.774,0-47.512-5.424-68.206-16.288
		c-20.702-10.855-38.517-25.021-53.445-42.501c-14.936-17.474-26.555-37.324-34.866-59.553
		C272.497,817.708,268.346,795.058,268.346,771.978z"/>
	<path fill="#FFFFFF" d="M857.253,955.218h-34.612V807.099c0-30.198-5.177-52.761-15.524-67.697
		c-10.355-14.928-25.538-22.396-45.556-22.396c-9.846,0-19.596,1.956-29.267,5.854c-9.671,3.905-18.754,9.249-27.232,16.033
		c-8.486,6.792-15.866,14.761-22.141,23.923c-6.283,9.162-10.944,19.176-13.998,30.031v162.371h-34.612v-371.57h34.612v166.443
		c10.514-20.019,25.108-35.797,43.774-47.337c18.658-11.532,38.851-17.306,60.571-17.306c15.27,0,28.162,2.799,38.684,8.398
		c10.514,5.599,19.167,13.408,25.959,23.414c6.784,10.013,11.707,22.062,14.761,36.139c3.054,14.085,4.581,29.609,4.581,46.573
		V955.218z"/>
	<path fill="#FFFFFF" d="M1045.58,960.308c-19.342,0-37.078-3.65-53.191-10.943c-16.121-7.293-30.118-17.306-41.992-30.031
		c-11.882-12.725-21.124-27.398-27.741-44.028c-6.617-16.622-9.925-34.437-9.925-53.445c0-18.657,3.309-36.218,9.925-52.681
		c6.617-16.455,15.779-30.874,27.486-43.266c11.707-12.383,25.704-22.221,41.993-29.521c16.287-7.293,33.928-10.943,52.936-10.943
		c19.342,0,37.07,3.65,53.191,10.943c16.111,7.301,29.943,17.227,41.482,29.776c11.533,12.558,20.527,26.977,26.977,43.265
		c6.443,16.288,9.672,33.594,9.672,51.918c0,2.72,0,5.433,0,8.145c0,2.72-0.176,4.581-0.51,5.599H948.87
		c1.018,14.252,4.326,27.406,9.925,39.447c5.599,12.049,12.804,22.483,21.633,31.304c8.82,8.828,18.912,15.699,30.285,20.614
		c11.365,4.923,23.494,7.381,36.393,7.381c8.479,0,16.965-1.186,25.451-3.563c8.479-2.369,16.287-5.599,23.414-9.671
		c7.125-4.071,13.568-9.074,19.342-15.016c5.766-5.933,10.18-12.47,13.234-19.596l30.031,8.144
		c-4.072,9.846-9.848,18.754-17.307,26.723c-7.469,7.977-16.121,14.936-25.959,20.869c-9.846,5.94-20.701,10.521-32.576,13.743
		C1070.854,958.693,1058.471,960.308,1045.58,960.308z M1143.307,808.626c-1.018-14.252-4.326-27.231-9.924-38.938
		c-5.6-11.707-12.727-21.8-21.379-30.286c-8.652-8.478-18.666-15.095-30.031-19.851c-11.373-4.748-23.502-7.126-36.393-7.126
		c-12.9,0-25.117,2.378-36.648,7.126c-11.541,4.756-21.633,11.373-30.285,19.851c-8.654,8.486-15.613,18.666-20.87,30.54
		c-5.265,11.883-8.398,24.774-9.417,38.685H1143.307z"/>
	<path fill="#FFFFFF" d="M1344.357,960.308c-19.342,0-37.078-3.65-53.189-10.943c-16.121-7.293-30.119-17.306-41.994-30.031
		c-11.881-12.725-21.123-27.398-27.74-44.028c-6.617-16.622-9.926-34.437-9.926-53.445c0-18.657,3.309-36.218,9.926-52.681
		c6.617-16.455,15.779-30.874,27.486-43.266c11.707-12.383,25.705-22.221,41.992-29.521c16.289-7.293,33.928-10.943,52.938-10.943
		c19.342,0,37.068,3.65,53.189,10.943c16.113,7.301,29.943,17.227,41.484,29.776c11.531,12.558,20.525,26.977,26.977,43.265
		c6.441,16.288,9.67,33.594,9.67,51.918c0,2.72,0,5.433,0,8.145c0,2.72-0.174,4.581-0.508,5.599h-227.014
		c1.018,14.252,4.326,27.406,9.924,39.447c5.6,12.049,12.805,22.483,21.633,31.304c8.82,8.828,18.914,15.699,30.287,20.614
		c11.363,4.923,23.492,7.381,36.393,7.381c8.479,0,16.965-1.186,25.449-3.563c8.479-2.369,16.289-5.599,23.414-9.671
		c7.127-4.071,13.568-9.074,19.342-15.016c5.768-5.933,10.182-12.47,13.234-19.596l30.031,8.144
		c-4.072,9.846-9.846,18.754-17.307,26.723c-7.467,7.977-16.119,14.936-25.959,20.869c-9.846,5.94-20.701,10.521-32.574,13.743
		C1369.633,958.693,1357.25,960.308,1344.357,960.308z M1442.086,808.626c-1.018-14.252-4.326-27.231-9.926-38.938
		s-12.725-21.8-21.379-30.286c-8.652-8.478-18.664-15.095-30.029-19.851c-11.373-4.748-23.502-7.126-36.395-7.126
		c-12.9,0-25.115,2.378-36.648,7.126c-11.539,4.756-21.631,11.373-30.285,19.851c-8.652,8.486-15.611,18.666-20.869,30.54
		c-5.264,11.883-8.398,24.774-9.416,38.685H1442.086z"/>
	<path fill="#FFFFFF" d="M1616.668,960.308c-20.701,0-40.895-3.396-60.57-10.18c-19.686-6.784-36.648-16.622-50.9-29.522
		l15.779-23.414c14.928,12.217,30.109,21.378,45.555,27.486c15.438,6.108,31.98,9.162,49.627,9.162
		c21.379,0,38.43-4.326,51.156-12.979c12.725-8.653,19.086-20.948,19.086-36.902c0-7.46-1.701-13.655-5.09-18.579
		c-3.395-4.915-8.398-9.241-15.016-12.979c-6.617-3.729-14.936-7.038-24.939-9.925c-10.014-2.879-21.633-5.854-34.867-8.908
		c-15.27-3.729-28.504-7.46-39.703-11.197c-11.197-3.73-20.447-7.97-27.74-12.726c-7.301-4.748-12.725-10.602-16.287-17.561
		c-3.563-6.951-5.346-15.691-5.346-26.213c0-13.234,2.625-24.941,7.891-35.121c5.256-10.181,12.383-18.579,21.377-25.195
		c8.988-6.617,19.51-11.62,31.559-15.016c12.041-3.389,24.854-5.09,38.43-5.09c20.359,0,38.852,3.308,55.48,9.925
		c16.623,6.617,30.031,15.357,40.211,26.214l-16.797,20.36c-9.846-10.181-21.807-17.815-35.885-22.905
		c-14.084-5.09-28.758-7.635-44.027-7.635c-9.162,0-17.648,0.938-25.451,2.799c-7.809,1.869-14.68,4.836-20.613,8.907
		c-5.941,4.072-10.609,9.25-13.998,15.525c-3.396,6.282-5.09,13.663-5.09,22.141c0,7.127,1.186,12.9,3.563,17.307
		c2.371,4.414,6.275,8.231,11.707,11.452c5.424,3.229,12.297,6.108,20.615,8.653c8.311,2.545,18.402,5.178,30.285,7.89
		c16.965,4.071,31.893,8.144,44.793,12.216c12.891,4.072,23.668,8.828,32.32,14.252c8.652,5.432,15.184,12.049,19.598,19.851
		c4.404,7.811,6.615,17.307,6.615,28.504c0,24.433-9.336,43.774-27.994,58.026C1673.334,953.182,1648.227,960.308,1616.668,960.308z
		"/>
	<path fill="#FFFFFF" d="M1891.02,960.308c-19.342,0-37.078-3.65-53.191-10.943c-16.121-7.293-30.119-17.306-41.992-30.031
		c-11.883-12.725-21.123-27.398-27.74-44.028c-6.617-16.622-9.926-34.437-9.926-53.445c0-18.657,3.309-36.218,9.926-52.681
		c6.617-16.455,15.779-30.874,27.486-43.266c11.707-12.383,25.703-22.221,41.992-29.521c16.287-7.293,33.928-10.943,52.936-10.943
		c19.342,0,37.07,3.65,53.191,10.943c16.111,7.301,29.943,17.227,41.482,29.776c11.533,12.558,20.527,26.977,26.977,43.265
		c6.443,16.288,9.672,33.594,9.672,51.918c0,2.72,0,5.433,0,8.145c0,2.72-0.176,4.581-0.51,5.599h-227.014
		c1.018,14.252,4.326,27.406,9.926,39.447c5.6,12.049,12.805,22.483,21.633,31.304c8.82,8.828,18.912,15.699,30.285,20.614
		c11.365,4.923,23.494,7.381,36.393,7.381c8.479,0,16.965-1.186,25.451-3.563c8.479-2.369,16.287-5.599,23.414-9.671
		c7.125-4.071,13.568-9.074,19.342-15.016c5.766-5.933,10.18-12.47,13.234-19.596l30.031,8.144
		c-4.072,9.846-9.848,18.754-17.307,26.723c-7.469,7.977-16.121,14.936-25.959,20.869c-9.846,5.94-20.701,10.521-32.576,13.743
		C1916.293,958.693,1903.91,960.308,1891.02,960.308z M1988.746,808.626c-1.018-14.252-4.326-27.231-9.924-38.938
		c-5.6-11.707-12.727-21.8-21.379-30.286c-8.652-8.478-18.666-15.095-30.031-19.851c-11.373-4.748-23.502-7.126-36.393-7.126
		c-12.9,0-25.117,2.378-36.648,7.126c-11.541,4.756-21.633,11.373-30.285,19.851c-8.654,8.486-15.613,18.666-20.869,30.54
		c-5.266,11.883-8.398,24.774-9.416,38.685H1988.746z"/>
</g>
</svg>
